<?xml version="1.0" encoding="UTF-8" standalone="no"?>
<!DOCTYPE svg PUBLIC "-//W3C//DTD SVG 1.1//EN" "http://www.w3.org/Graphics/SVG/1.1/DTD/svg11.dtd">
<svg width="100%" height="100%" viewBox="0 0 7 7" version="1.1" xmlns="http://www.w3.org/2000/svg" xmlns:xlink="http://www.w3.org/1999/xlink" xml:space="preserve" xmlns:serif="http://www.serif.com/" style="fill-rule:evenodd;clip-rule:evenodd;stroke-linecap:square;stroke-miterlimit:1.5;">
    <g transform="matrix(1,0,0,1,-62.1188,-342.903)">
        <g id="Help-Icon" serif:id="Help Icon" transform="matrix(1,0,0,1,-0.186899,25.979)">
            <g transform="matrix(1.01187,0,0,1.01187,-0.776897,-3.87301)">
                <circle cx="65.428" cy="320.118" r="2.596" style="fill:none;stroke:white;stroke-width:0.54px;"/>
            </g>
            <g transform="matrix(0.142813,0,0,0.142813,56.0352,275.413)">
                <circle cx="65.428" cy="320.118" r="2.596" style="fill:white;"/>
            </g>
            <g transform="matrix(0.28274,0,0,0.233662,46.8533,244.645)">
                <path d="M65.428,324.95L65.428,322.714C66.862,322.714 68.024,321.552 68.024,320.118C68.024,318.686 66.861,317.43 65.428,317.43C64.431,317.43 63.548,318.089 63.115,318.94C62.999,319.168 62.915,319.416 62.87,319.678" style="fill:none;stroke:white;stroke-width:2.12px;stroke-linecap:butt;"/>
            </g>
        </g>
    </g>
</svg>
