<?xml version="1.0" encoding="UTF-8" standalone="no"?>
<!DOCTYPE svg PUBLIC "-//W3C//DTD SVG 1.1//EN" "http://www.w3.org/Graphics/SVG/1.1/DTD/svg11.dtd">
<svg width="100%" height="100%" viewBox="0 0 2 2" version="1.1" xmlns="http://www.w3.org/2000/svg" xmlns:xlink="http://www.w3.org/1999/xlink" xml:space="preserve" xmlns:serif="http://www.serif.com/" style="fill-rule:evenodd;clip-rule:evenodd;stroke-linejoin:round;stroke-miterlimit:2;">
    <g transform="matrix(1,0,0,1,-93.1018,-184.557)">
        <g id="Search-Arrow" serif:id="Search Arrow" transform="matrix(4.23227e-17,-0.691183,0.739245,4.52657e-17,-32.3912,188.911)">
            <path d="M4.846,169.876C4.882,169.804 4.959,169.758 5.044,169.758C5.129,169.758 5.207,169.804 5.243,169.876C5.523,170.437 6.03,171.451 6.278,171.948C6.31,172.011 6.305,172.085 6.265,172.144C6.225,172.203 6.155,172.239 6.08,172.239C5.55,172.239 4.539,172.239 4.008,172.239C3.934,172.239 3.864,172.203 3.824,172.144C3.784,172.085 3.779,172.011 3.81,171.948C4.059,171.451 4.566,170.437 4.846,169.876Z" style="fill:white;"/>
        </g>
    </g>
</svg>
