<?xml version="1.0" encoding="UTF-8" standalone="no"?>
<!DOCTYPE svg PUBLIC "-//W3C//DTD SVG 1.1//EN" "http://www.w3.org/Graphics/SVG/1.1/DTD/svg11.dtd">
<svg width="100%" height="100%" viewBox="0 0 152 158" version="1.1" xmlns="http://www.w3.org/2000/svg" xmlns:xlink="http://www.w3.org/1999/xlink" xml:space="preserve" xmlns:serif="http://www.serif.com/" style="fill-rule:evenodd;clip-rule:evenodd;stroke-linejoin:round;stroke-miterlimit:2;">
    <g transform="matrix(1,0,0,1,-133.928,-41.923)">
        <g id="TikTok-Logo" serif:id="TikTok Logo" transform="matrix(1.02469,0.165019,-0.165019,1.02469,-11.0093,-182.978)">
            <path d="M324.38,242.098L324.38,215.147C324.38,215.147 310.137,215.218 298.105,204.196C287.993,194.937 287.154,177.579 287.154,177.579L260.203,177.579L260.203,284.203C260.203,298.852 247.452,306.439 238.308,306.439C231.417,306.439 215.737,301.035 215.737,284.032C215.737,266.183 233.764,261.632 238.478,261.632C243.193,261.632 245.049,262.642 245.049,262.642L245.049,234.197C245.049,234.197 240.668,233.778 237.468,233.671C210.268,232.747 187.776,257.159 187.776,284.039C187.776,306.745 205.532,334.236 237.973,334.236C272.526,334.236 288.341,305.422 288.341,284.21L288.341,231.317C288.341,231.317 298.283,236.878 306.368,239.403C314.446,241.927 324.38,242.098 324.38,242.098Z" style="fill:white;fill-rule:nonzero;"/>
        </g>
    </g>
</svg>
