<?xml version="1.0" encoding="UTF-8" standalone="no"?>
<!DOCTYPE svg PUBLIC "-//W3C//DTD SVG 1.1//EN" "http://www.w3.org/Graphics/SVG/1.1/DTD/svg11.dtd">
<svg width="100%" height="100%" viewBox="0 0 6 7" version="1.1" xmlns="http://www.w3.org/2000/svg" xmlns:xlink="http://www.w3.org/1999/xlink" xml:space="preserve" xmlns:serif="http://www.serif.com/" style="fill-rule:evenodd;clip-rule:evenodd;stroke-linecap:square;stroke-miterlimit:1.5;">
    <g transform="matrix(1,0,0,1,-8.90117,-343.006)">
        <g id="Transaction-Icon" serif:id="Transaction Icon" transform="matrix(1,0,0,1,-0.186899,25.979)">
            <g transform="matrix(1.06913,0,0,1.00759,-0.745351,-2.46854)">
                <path d="M13.633,318.313C13.633,317.909 13.324,317.581 12.942,317.581C12.216,317.581 11.078,317.581 10.352,317.581C9.97,317.581 9.661,317.909 9.661,318.313C9.661,319.265 9.661,320.92 9.661,321.872C9.661,322.277 9.97,322.604 10.352,322.604C11.078,322.604 12.216,322.604 12.942,322.604C13.324,322.604 13.633,322.277 13.633,321.872C13.633,320.92 13.633,319.265 13.633,318.313Z" style="fill:none;stroke:white;stroke-width:0.53px;"/>
            </g>
            <g transform="matrix(1.05854,0,0,1.20262,-0.659744,-64.6269)">
                <path d="M12.677,318.809C12.677,318.796 12.671,318.784 12.661,318.775C12.651,318.766 12.638,318.761 12.623,318.761C12.34,318.761 11.025,318.761 10.742,318.761C10.728,318.761 10.714,318.766 10.704,318.775C10.694,318.784 10.688,318.796 10.688,318.809C10.688,318.893 10.688,319.069 10.688,319.154C10.688,319.166 10.694,319.178 10.704,319.187C10.714,319.196 10.728,319.201 10.742,319.201C11.025,319.201 12.34,319.201 12.623,319.201C12.638,319.201 12.651,319.196 12.661,319.187C12.671,319.178 12.677,319.166 12.677,319.154C12.677,319.069 12.677,318.893 12.677,318.809Z" style="fill:white;"/>
            </g>
            <g transform="matrix(1.05854,0,0,1.20262,-0.659744,-63.5616)">
                <path d="M12.677,318.809C12.677,318.796 12.671,318.784 12.661,318.775C12.651,318.766 12.638,318.761 12.623,318.761C12.34,318.761 11.025,318.761 10.742,318.761C10.728,318.761 10.714,318.766 10.704,318.775C10.694,318.784 10.688,318.796 10.688,318.809C10.688,318.893 10.688,319.069 10.688,319.154C10.688,319.166 10.694,319.178 10.704,319.187C10.714,319.196 10.728,319.201 10.742,319.201C11.025,319.201 12.34,319.201 12.623,319.201C12.638,319.201 12.651,319.196 12.661,319.187C12.671,319.178 12.677,319.166 12.677,319.154C12.677,319.069 12.677,318.893 12.677,318.809Z" style="fill:white;"/>
            </g>
            <g transform="matrix(0.661804,0,0,1.20262,3.58056,-62.4963)">
                <path d="M12.677,318.809C12.677,318.796 12.668,318.784 12.652,318.775C12.636,318.766 12.614,318.761 12.591,318.761C12.264,318.761 11.101,318.761 10.774,318.761C10.751,318.761 10.729,318.766 10.713,318.775C10.697,318.784 10.688,318.796 10.688,318.809C10.688,318.893 10.688,319.069 10.688,319.154C10.688,319.166 10.697,319.178 10.713,319.187C10.729,319.196 10.751,319.201 10.774,319.201C11.101,319.201 12.264,319.201 12.591,319.201C12.614,319.201 12.636,319.196 12.652,319.187C12.668,319.178 12.677,319.166 12.677,319.154C12.677,319.069 12.677,318.893 12.677,318.809Z" style="fill:white;"/>
            </g>
        </g>
    </g>
</svg>
